<svg xmlns="http://www.w3.org/2000/svg" width="512" height="512" viewBox="0 0 512 512" version="1.1">
	<path d="M 111.694 58.783 C 99.916 85.511, 93.073 108.309, 88.966 134.500 C 86.439 150.608, 85.865 182.933, 87.828 198.481 L 88.963 207.462 84.731 211.857 C 70.104 227.050, 43.209 240.688, 20.978 244.186 L 13 245.442 13.010 249.471 C 13.028 256.524, 15.023 277.184, 16.585 286.500 C 19.747 305.349, 27.185 329.415, 34.105 343.183 L 36.961 348.866 31.231 350.028 C 24.051 351.483, 11.883 354.784, 11.207 355.460 C 10.805 355.862, 14.699 370.803, 15.449 371.736 C 15.554 371.866, 18.758 371.113, 22.570 370.062 C 29.681 368.102, 46.176 364.778, 46.491 365.241 C 50.781 371.552, 57.017 379.850, 60.935 384.457 C 63.721 387.733, 66 390.688, 66 391.024 C 66 391.360, 62.513 392.449, 58.250 393.446 C 45.618 396.398, 25.518 402.838, 12.736 408.027 C 6.166 410.694, 0.608 413.058, 0.387 413.280 C -0.508 414.175, 7.194 429.138, 8.318 428.686 C 8.968 428.425, 14.450 426.174, 20.500 423.684 C 33.604 418.291, 49.500 413.402, 68.184 409.018 L 81.868 405.807 88.684 411.284 C 112.328 430.285, 140.776 444.485, 178.061 455.898 C 207.442 464.892, 227.219 468.052, 254.500 468.112 C 282.479 468.174, 302.738 464.955, 333.364 455.581 C 368.909 444.701, 399.778 429.139, 422.452 410.668 C 425.604 408.101, 428.544 406, 428.985 406 C 431.121 406, 446.849 409.564, 458.270 412.636 C 472.750 416.530, 484.016 420.370, 495.960 425.483 C 500.479 427.417, 504.349 429, 504.558 429 C 504.768 429, 506.617 425.512, 508.668 421.250 C 510.718 416.988, 512.590 413.100, 512.828 412.611 C 513.065 412.122, 512.796 412.008, 512.229 412.358 C 511.662 412.709, 508.042 411.652, 504.184 410.010 C 488.892 403.503, 472.456 398.215, 448.208 392 L 443.917 390.901 447.536 386.700 C 449.527 384.390, 454.109 378.534, 457.719 373.686 L 464.283 364.872 468.391 365.507 C 472.268 366.107, 491.684 370.494, 495.061 371.534 C 496.272 371.907, 497.145 370.208, 498.946 363.975 C 500.223 359.553, 501.047 355.714, 500.777 355.444 C 500.054 354.721, 487.464 351.353, 480.250 349.953 C 476.813 349.286, 474 348.594, 474 348.415 C 474 348.236, 475.772 344.063, 477.937 339.143 C 489.029 313.937, 495.167 287.249, 496.664 257.720 L 497.284 245.496 489.865 244.316 C 467.329 240.730, 442.733 228.518, 426.450 212.829 L 421.400 207.963 422.152 201.232 C 426.823 159.432, 421.641 118.307, 406.672 78.378 C 401.151 63.649, 392.384 44.500, 391.163 44.500 C 390.661 44.500, 366.767 65.763, 338.065 91.750 L 285.879 139 255.146 139 L 224.413 139 171.957 91.503 C 143.105 65.380, 119.209 44.005, 118.854 44.003 C 118.499 44.001, 115.277 50.652, 111.694 58.783 M 339.249 114.063 L 292.998 156 255.170 156 L 217.342 156 171.506 114.500 C 146.296 91.675, 125.354 73, 124.967 73 C 123.939 73, 117.688 89.801, 114.008 102.455 C 104.655 134.613, 102.323 159.149, 105.164 195.511 C 105.809 203.768, 106.044 211.687, 105.687 213.109 C 105.330 214.531, 101.767 219.076, 97.769 223.208 C 81.702 239.814, 59.332 252.600, 35.206 258.967 L 30.912 260.101 31.542 266.300 C 34.290 293.356, 41.032 318.097, 51.161 338.299 L 55.072 346.099 63.786 345.299 C 77.301 344.060, 138.084 344.437, 149.443 345.831 C 154.911 346.503, 159.485 347.153, 159.606 347.276 C 159.728 347.399, 159.330 351.261, 158.722 355.858 L 157.617 364.215 152.059 363.622 C 133.206 361.609, 111.967 360.800, 91.257 361.305 C 78.474 361.617, 67.560 362.154, 67.003 362.498 C 65.857 363.206, 72.160 371.307, 81.270 380.833 L 87.326 387.167 102.413 385.090 C 124.253 382.083, 134.414 381.140, 153.250 380.372 L 170 379.690 170 388.260 L 170 396.829 162.750 397.383 C 158.763 397.688, 149.884 398.209, 143.021 398.542 C 130.003 399.173, 107.078 401.589, 106.250 402.417 C 105.500 403.167, 121.415 413.226, 133 419.323 C 153.423 430.073, 188.740 442.369, 212.192 446.895 C 220.491 448.496, 240.608 450.994, 245.250 450.999 C 245.662 451, 246 437.384, 246 420.741 L 246 390.483 224.500 369 C 212.675 357.185, 203 347.176, 203 346.759 C 203 346.341, 226.850 346, 256 346 C 285.150 346, 309 346.341, 309 346.758 C 309 347.175, 298.875 357.634, 286.500 370 L 264 392.483 264 421.843 L 264 451.203 271.250 450.547 C 306.572 447.350, 346.059 435.604, 378.588 418.615 C 388.934 413.212, 405.211 402.878, 404.498 402.165 C 403.827 401.494, 381.794 399.196, 370 398.566 C 363.675 398.228, 354.788 397.698, 350.250 397.386 L 342 396.820 342 388.255 L 342 379.690 358.654 380.372 C 376.599 381.108, 396.292 382.976, 413.020 385.528 L 423.500 387.127 429.776 380.314 C 437.768 371.638, 444.436 363.103, 443.754 362.421 C 443.463 362.130, 432.937 361.632, 420.363 361.315 C 399.978 360.800, 378.795 361.609, 359.941 363.622 L 354.383 364.215 353.278 355.858 C 352.670 351.261, 352.269 347.402, 352.387 347.282 C 352.505 347.163, 356.854 346.572, 362.051 345.970 C 377.513 344.180, 413.323 343.276, 431 344.230 C 440.075 344.720, 449.300 345.206, 451.500 345.310 L 455.500 345.500 459.698 337 C 469.416 317.324, 476.330 291.923, 478.520 267.852 L 479.216 260.205 473.358 258.584 C 457.567 254.216, 439.794 245.650, 427.500 236.481 C 419.886 230.802, 407.310 218.394, 405.310 214.586 C 403.824 211.758, 404.134 200.838, 406.462 174 C 407.018 167.584, 405.268 144.184, 403.394 133 C 400.571 116.143, 392.833 88.823, 387.339 76.313 L 385.500 72.125 339.249 114.063 M 130.543 102.176 C 128.714 107.545, 124.688 124.605, 122.796 135 C 120.827 145.821, 120.529 150.724, 120.571 171.500 C 120.599 184.700, 121.044 197.163, 121.560 199.196 L 122.500 202.892 159.500 183.367 C 179.850 172.629, 196.852 163.504, 197.283 163.089 C 197.713 162.674, 193.213 157.856, 187.283 152.383 C 146.598 114.833, 130.949 100.985, 130.543 102.176 M 345.155 131.344 C 326.816 148.091, 311.742 162.084, 311.656 162.438 C 311.418 163.421, 386.404 202.821, 387.172 202.117 C 387.542 201.777, 388.403 194.441, 389.084 185.813 C 390.052 173.559, 390.064 167.036, 389.140 156.006 C 387.956 141.873, 383.588 117.605, 380.266 106.697 L 378.498 100.893 345.155 131.344 M 140.584 135.155 C 138.744 140.959, 136.033 175, 137.410 175 C 138.115 175, 167.027 160.093, 168 159.228 C 168.489 158.793, 158.204 148.934, 146.755 138.864 C 142.925 135.495, 140.868 134.259, 140.584 135.155 M 354.693 145.992 C 347.650 152.529, 341.868 158.213, 341.845 158.624 C 341.810 159.260, 370.618 175, 371.817 175 C 372.048 175, 372.015 169.262, 371.745 162.250 C 371.247 149.321, 369.276 133.956, 368.128 134.054 C 367.783 134.083, 361.737 139.455, 354.693 145.992 M 122.132 252.663 L 118.763 253.144 119.267 265.322 C 119.841 279.211, 121.529 286.328, 126.782 297 C 133.727 311.112, 149.137 323.575, 163.890 327.011 C 175.071 329.615, 189.633 326.671, 201 319.507 C 209.780 313.973, 225 297.631, 225 293.737 C 225 292.915, 221.885 289.304, 218.078 285.713 C 195.308 264.232, 169.346 253.341, 139 252.539 C 131.575 252.342, 123.984 252.398, 122.132 252.663 M 357.749 253.493 C 333.023 257.520, 309.843 269.397, 292.578 286.885 L 285.656 293.897 288.509 298.013 C 298.357 312.224, 311.689 322.237, 326.491 326.540 C 333.983 328.718, 346.214 328.096, 353.910 325.145 C 377.001 316.291, 391.932 292.863, 392.343 264.839 C 392.430 258.975, 392.169 253.844, 391.764 253.436 C 390.342 252.004, 366.649 252.043, 357.749 253.493 M 137 272.178 C 137 275.971, 140.532 286.346, 143.615 291.606 C 144.963 293.906, 148.315 297.892, 151.065 300.464 C 162.155 310.837, 174.943 313.267, 187.020 307.295 C 190.584 305.533, 195.697 302.148, 198.382 299.774 L 203.263 295.457 198.510 291.562 C 184.118 279.768, 162.233 271.266, 142.250 269.704 C 137.035 269.296, 137 269.313, 137 272.178 M 365.512 270.107 C 346.289 272.130, 325.212 281.025, 311 293.113 L 308.500 295.239 313.982 300.157 C 327.617 312.388, 341.517 313.910, 355.255 304.674 C 362.774 299.620, 368.118 292.763, 371.345 284.027 C 374.047 276.709, 375.611 268.931, 374.338 269.133 C 373.877 269.206, 369.906 269.644, 365.512 270.107 M 250.261 369.739 L 256 375.478 261.739 369.739 L 267.478 364 256 364 L 244.522 364 250.261 369.739" stroke="none" fill="black" fill-rule="evenodd"/>
</svg>