<svg xmlns="http://www.w3.org/2000/svg" width="512" height="512" viewBox="0 0 512 512" version="1.1">
	<path d="M 240.500 64.262 C 227.536 65.481, 214.756 71.162, 207.529 78.918 C 204.668 81.988, 197.713 89.405, 192.074 95.401 C 179.516 108.751, 176.114 113.803, 171.465 126 C 169.474 131.225, 166.075 139.377, 163.911 144.116 C 161.748 148.855, 159.159 155.956, 158.158 159.896 C 157.158 163.837, 155.925 167.463, 155.419 167.953 C 154.914 168.443, 149.701 171.746, 143.836 175.292 C 128.616 184.494, 112.623 196.494, 109.422 201.112 C 107.168 204.365, 106.688 206.117, 106.733 210.929 C 106.764 214.151, 107.403 218.072, 108.153 219.643 C 109.730 222.945, 117.665 227.564, 124.154 228.959 C 126.545 229.472, 131.825 230.581, 135.890 231.423 C 144.137 233.131, 148 235.171, 148 237.818 C 148 238.792, 145.863 243.702, 143.250 248.729 C 134.529 265.511, 118.351 282.509, 98 296.274 C 67.358 317, 58.060 326.052, 59.585 333.676 C 60.434 337.919, 62.852 340.576, 68.820 343.825 L 74.140 346.720 70.491 348.873 C 67.033 350.913, 66.609 350.946, 62.386 349.513 C 59.935 348.681, 55.711 348, 53 348 C 48.914 348, 47.466 348.530, 44.546 351.094 C 40.431 354.706, 37.675 362.463, 38.553 367.955 C 39.753 375.455, 41.259 381.700, 43.093 386.788 C 44.142 389.696, 45 393.571, 45 395.400 C 45 397.633, 46.030 400.002, 48.135 402.612 C 49.859 404.751, 53.881 411.900, 57.073 418.500 C 62.914 430.578, 64.251 433.097, 71.144 445 C 73.462 449.002, 75.248 453.682, 75.791 457.177 C 76.938 464.546, 79.121 467.724, 84.750 470.214 C 91.469 473.186, 107.199 474.263, 118 472.491 C 125.739 471.221, 151.491 467.558, 161.631 466.285 C 166.126 465.721, 170.006 466.727, 180.025 471.056 C 187.313 474.204, 189.781 474.326, 244 474.197 C 267.418 474.142, 268.812 474.247, 275.575 476.570 C 284.548 479.652, 289.030 479.627, 298.719 476.443 C 302.999 475.036, 310.325 473.458, 315 472.935 C 326.859 471.609, 327.733 471.408, 344 466.280 C 361.052 460.905, 380.129 452.224, 384.826 447.702 C 386.655 445.941, 390.248 441.575, 392.809 438 C 397.558 431.373, 410.437 408.336, 412.936 402 C 414.200 398.793, 424.857 376.886, 425.483 376.207 C 425.632 376.045, 430.646 377.788, 436.627 380.080 C 443.797 382.828, 449.725 384.415, 454.032 384.742 C 460.011 385.196, 460.831 385.013, 463.715 382.586 C 467.975 379.002, 469.334 374.326, 468.799 365.093 C 468.046 352.083, 462.073 343.376, 446.154 332.079 C 437.209 325.731, 422.179 309.712, 407.971 291.383 C 401.200 282.647, 389.514 268.075, 382.003 259 C 374.491 249.925, 366.623 240.099, 364.518 237.165 C 359.624 230.344, 358.924 224.830, 361.811 215.857 C 366.300 201.906, 367.205 194.494, 366.068 181 C 363.327 148.446, 361.121 137.927, 354.117 124 C 351.490 118.775, 348.325 111.946, 347.084 108.824 C 345.208 104.103, 343.116 101.566, 334.664 93.761 C 329.074 88.598, 322.162 82.542, 319.305 80.302 C 312.317 74.824, 300.314 70.658, 285.500 68.571 C 278.900 67.641, 270.486 65.995, 266.801 64.913 C 259.877 62.880, 256.180 62.788, 240.500 64.262 M 188.450 134.407 C 184.257 136.233, 180.546 140.926, 178.078 147.522 C 175.603 154.137, 175.481 156, 177.525 156 C 178.363 156, 179.482 157.137, 180.010 158.526 C 180.538 159.915, 181.617 161.299, 182.407 161.603 C 184.405 162.370, 187.738 160.399, 188.500 158.001 C 189.372 155.252, 191.355 155.484, 197.623 159.070 C 204.897 163.232, 206.858 162.767, 210.250 156.071 C 215.020 146.654, 213.786 137.426, 207.316 134.117 C 204.332 132.591, 192.190 132.778, 188.450 134.407 M 251.419 153.897 C 249.174 154.917, 245.735 157.719, 243.776 160.125 C 239.890 164.899, 233 177.327, 233 179.564 C 233 181.036, 235.231 181.783, 240.961 182.230 C 243.684 182.442, 244.541 183.012, 244.983 184.905 C 245.293 186.228, 246.253 187.757, 247.118 188.303 C 249.500 189.805, 253.927 188.254, 255.195 185.472 C 256.727 182.109, 259.013 182.364, 264.432 186.500 C 266.954 188.425, 269.682 190, 270.494 190 C 271.307 190, 273.328 187.313, 274.986 184.029 C 277.314 179.416, 278 176.726, 278 172.207 C 278 165.234, 275.387 161.046, 267.574 155.498 C 261.871 151.448, 257.718 151.037, 251.419 153.897 M 150 189.931 C 139.020 193.619, 128.706 201.508, 127.463 207.170 C 126.923 209.625, 127.329 210.746, 129.650 213.224 C 133.217 217.030, 144.634 222.353, 154.794 224.947 C 159.059 226.036, 165.887 228.304, 169.966 229.986 C 181.706 234.827, 187.668 236, 200.537 236 C 213.201 236, 221.825 234.138, 231.250 229.370 C 238.531 225.686, 237.297 222.331, 226.500 216.451 C 220.322 213.087, 206.352 205.723, 199 201.954 C 183.744 194.134, 157.014 187.576, 150 189.931 M 161.768 239.827 C 155.027 242.971, 153.185 245.268, 142.651 263.671 C 132.085 282.130, 130.725 285.031, 126.554 298 C 124.520 304.325, 121.486 313.100, 119.812 317.500 C 115.737 328.208, 112.525 341.971, 113.342 345.225 C 113.810 347.093, 114.868 348.032, 117.038 348.508 C 120.454 349.259, 120.419 350.215, 116.704 357.500 C 114.477 361.865, 114.016 371.328, 115.489 382.413 C 116.158 387.451, 116.018 388.514, 114.538 389.596 C 113.265 390.527, 112.188 390.587, 110.511 389.823 C 107.591 388.492, 106.362 385.745, 105.461 378.532 C 104.604 371.676, 101.783 363.537, 99.290 360.731 C 96.531 357.626, 87.966 354.021, 83.323 354.010 C 79.994 354.002, 78.724 354.535, 77.073 356.635 C 74.410 360.020, 74.468 361.970, 77.483 370.500 C 78.844 374.350, 79.967 378.288, 79.979 379.250 C 80.028 383.315, 77.210 380.400, 73.101 372.134 C 67.376 360.615, 61.739 354.470, 56.014 353.502 C 47.824 352.119, 46.358 354.399, 45.347 370.090 C 44.896 377.082, 45.116 378.243, 48.135 384.840 C 49.937 388.778, 51.827 392, 52.334 392 C 52.841 392, 56.441 394.362, 60.336 397.250 C 64.230 400.137, 68.560 403.128, 69.958 403.896 C 73.416 405.795, 99 406.107, 99 404.250 C 99 403.563, 99.638 403, 100.417 403 C 101.196 403, 102.023 403.563, 102.254 404.250 C 102.582 405.224, 103.043 405.196, 104.343 404.123 C 105.474 403.189, 107.626 402.902, 111.035 403.229 C 113.799 403.495, 116.277 403.361, 116.543 402.931 C 116.808 402.501, 121.995 402.136, 128.070 402.120 C 135.976 402.098, 139.994 401.651, 142.211 400.545 C 143.914 399.695, 145.858 399, 146.531 399 C 148.462 399, 150.185 396.326, 150.548 392.768 C 150.731 390.971, 151.129 386.973, 151.433 383.885 C 151.788 380.281, 151.455 376.521, 150.504 373.385 C 149.689 370.698, 149.017 368.300, 149.011 368.056 C 148.969 366.347, 154.920 376.129, 158.624 383.860 C 163.079 393.158, 163.115 393.320, 164.085 408.360 C 164.623 416.687, 165.470 426.200, 165.968 429.500 C 168.184 444.179, 170.214 453.760, 171.793 457 C 175.415 464.427, 192.568 468.941, 212 467.581 C 216.675 467.253, 228.600 466.646, 238.500 466.232 C 248.400 465.817, 257.063 465.119, 257.750 464.680 C 260.240 463.091, 258.864 460.504, 251.514 452.951 C 243.138 444.344, 239.025 436.878, 239.010 430.253 C 239.002 426.794, 239.651 425.285, 242.509 422.122 C 244.438 419.986, 247.319 415.372, 248.910 411.869 C 250.500 408.366, 254.319 402.350, 257.395 398.500 C 260.472 394.650, 262.991 391.135, 262.994 390.689 C 263.006 388.987, 275.897 370.360, 279.042 367.500 L 282.341 364.500 280.173 367.650 C 274.229 376.289, 268.336 394.484, 269.477 400.674 C 270.124 404.185, 274.342 408.358, 281.460 412.530 C 283.957 413.993, 286 415.541, 286 415.970 C 286 416.399, 287.238 417.374, 288.750 418.136 C 292.937 420.246, 303 427.193, 303 427.973 C 303 428.353, 305.250 430.121, 308 431.903 C 310.750 433.685, 313 435.561, 313 436.071 C 313 436.582, 313.900 437, 315 437 C 316.100 437, 317 437.433, 317 437.963 C 317 438.523, 319.198 438.711, 322.250 438.414 C 333.444 437.322, 351.957 421.036, 363.237 402.357 C 373.011 386.170, 374.137 378.885, 367.897 372.208 C 363.279 367.267, 359.311 367.707, 353.980 373.750 C 349.784 378.506, 344 388.706, 344 391.349 C 344 393.311, 341.359 395.390, 340.544 394.071 C 340.195 393.507, 339.450 388.872, 338.887 383.772 C 337.630 372.374, 336.686 369.810, 332.342 365.995 C 328.095 362.267, 323.294 361.970, 320.285 365.250 C 317.711 368.056, 313.634 376.133, 311.951 381.762 C 308.818 392.238, 305.424 388.093, 306.824 375.500 C 307.808 366.649, 307.235 363.978, 303.841 361.601 C 300.886 359.532, 291.113 359.447, 288.441 361.468 C 287.374 362.276, 285.825 362.932, 285 362.928 C 282.423 362.912, 290.117 356.945, 296.567 353.957 C 303.803 350.605, 304.300 350.064, 306.579 343.070 C 308.169 338.190, 308.236 336.211, 307.240 323.570 C 305.934 306.971, 302.911 297.532, 296.584 290.295 C 291.621 284.618, 288.622 282.751, 266.026 271.273 C 252.645 264.476, 244.253 260.921, 235.588 258.379 C 229.008 256.449, 222.858 254.459, 221.922 253.958 C 218.569 252.164, 171.509 237.002, 169.525 237.077 C 168.411 237.119, 164.920 238.356, 161.768 239.827 M 96.064 343.304 C 88.499 346.040, 87.880 346.450, 90.064 347.279 C 91.404 347.788, 95.082 349.363, 98.238 350.780 C 101.394 352.197, 104.146 353.164, 104.353 352.928 C 105.055 352.130, 105.815 339.999, 105.155 340.127 C 104.795 340.196, 100.704 341.626, 96.064 343.304 M 141.816 360.582 C 143.062 362.996, 145.835 365.498, 146.514 364.820 C 146.770 364.564, 145.576 363.037, 143.860 361.427 C 141.495 359.208, 141.001 359.004, 141.816 360.582" stroke="none" fill="black" fill-rule="evenodd"/>
</svg>